PathFileType	4	(X/Y/Z)	D:\TRACE\v60_Jaco2_6-2-23\BothDRS_Motion3_9-v60.trc
DataRate	CameraRate	NumFrames	NumMarkers	Units	OrigDataRate	OrigDataStartFrame	OrigNumFrames
100.00	100.00	      32	9	mm	100.00	1	      7000
Frame#	Time	front left toe			Front right toe			aft left toe			aft right toe			Arm			FL body			FR body			AL Body			AR Body			
		X1	Y1	Z1	X2	Y2	Z2	X3	Y3	Z3	X4	Y4	Z4	X5	Y5	Z5	X6	Y6	Z6	X7	Y7	Z7	X8	Y8	Z8	X9	Y9	Z9	

1	0.000	-199.31912	43.27691	-106.34139	217.74780	42.27134	-93.45743	-225.43616	-65.17648	517.50110	173.07227	-65.38890	511.83902	15.86814	1220.50830	-33.21471	-62.72053	616.91156	-251.52345	95.56262	615.64716	-244.13710	-98.79232	453.35226	678.25665	53.42094	443.40909	683.05524	
2	0.010	-199.28024	43.30868	-106.34643	217.74216	42.24934	-93.48023	-225.40714	-65.19662	517.53857	172.92972	-65.52618	511.80545	15.84926	1220.52234	-33.23934	-62.70825	616.90186	-251.51259	95.54644	615.65674	-244.12695	-98.79810	453.34659	678.26080	53.43471	443.38306	683.05029	
3	0.020	-199.28133	43.36936	-106.41227	217.88722	42.32267	-93.42676	-225.45470	-65.18060	517.48315	172.92705	-65.35287	511.89633	15.83931	1220.52136	-33.25370	-62.69016	616.90717	-251.54086	95.56097	615.65442	-244.11824	-98.75742	453.33197	678.27203	53.45391	443.36200	683.05975	
4	0.030	-199.27411	43.33529	-106.41914	217.88759	42.37161	-93.38947	-225.40030	-65.17593	517.51978	173.01491	-65.39439	511.88840	15.86228	1220.52258	-33.24479	-62.71075	616.90796	-251.56342	95.59990	615.67773	-244.11984	-98.77068	453.33493	678.25574	53.40303	443.36978	683.07086	
5	0.040	-199.30022	43.28490	-106.35529	217.91153	42.32486	-93.44496	-225.43848	-65.12888	517.45898	173.03313	-65.39866	511.84424	15.86967	1220.51489	-33.23636	-62.71307	616.90143	-251.51952	95.52081	615.66711	-244.12915	-98.75130	453.34402	678.26019	53.42298	443.36020	683.05634	
6	0.050	-199.27538	43.37496	-106.42266	217.86720	42.32985	-93.41093	-225.41167	-65.14274	517.50043	173.09668	-65.34311	511.94238	15.83226	1220.52466	-33.23637	-62.70995	616.92975	-251.54309	95.56937	615.66113	-244.13350	-98.77785	453.34894	678.27606	53.38464	443.35138	683.03394	
7	0.060	-199.29724	43.28787	-106.33527	217.85776	42.31605	-93.37236	-225.41096	-65.16013	517.51044	173.02965	-65.40863	511.90927	15.85130	1220.53760	-33.24889	-62.71481	616.90503	-251.52933	95.54625	615.62610	-244.12462	-98.78359	453.33640	678.27441	53.41521	443.36057	683.03766	
8	0.070	-199.28615	43.37002	-106.42200	217.81075	42.29814	-93.39716	-225.42818	-65.16526	517.48761	172.95239	-65.40868	511.88202	15.84379	1220.51526	-33.22782	-62.71603	616.92090	-251.54288	95.59170	615.62842	-244.08423	-98.80491	453.33255	678.26001	53.41883	443.35028	683.04047	
9	0.080	-199.28665	43.34624	-106.41257	217.82669	42.30407	-93.42727	-225.43456	-65.16733	517.49103	173.10098	-65.37309	511.92377	15.84625	1220.51062	-33.24556	-62.69672	616.93359	-251.50388	95.59209	615.64978	-244.10863	-98.79176	453.35150	678.24042	53.41445	443.37213	683.01965	
10	0.090	-199.29176	43.35489	-106.41128	217.85173	42.31285	-93.43417	-225.41397	-65.16374	517.51129	173.03113	-65.37029	511.92816	15.84951	1220.53381	-33.22338	-62.71378	616.92700	-251.55099	95.54313	615.64410	-244.11499	-98.75239	453.34390	678.25214	53.43601	443.39108	683.04169	
11	0.100	-199.27621	43.36986	-106.42609	217.89102	42.34115	-93.39926	-225.38019	-65.18079	517.50073	173.10092	-65.36246	511.87039	15.85201	1220.52136	-33.24033	-62.68450	616.91687	-251.48666	95.57662	615.63031	-244.11896	-98.76146	453.33542	678.26947	53.43529	443.36395	683.06226	
12	0.110	-199.27762	43.36634	-106.40087	217.90019	42.35097	-93.34451	-225.41203	-65.17062	517.47443	173.02789	-65.34978	511.90936	15.81548	1220.53564	-33.24099	-62.69336	616.91504	-251.49606	95.61898	615.65265	-244.12830	-98.81177	453.33435	678.26251	53.41467	443.36642	683.06653	
13	0.120	-199.29001	43.31161	-106.35485	217.81090	42.28931	-93.40334	-225.40791	-65.17214	517.50641	172.91815	-65.43888	511.82788	15.84315	1220.52771	-33.23162	-62.66755	616.89795	-251.50848	95.57003	615.65924	-244.14812	-98.80096	453.37701	678.22845	53.40919	443.32935	683.04907	
14	0.130	-199.29764	43.36526	-106.41122	217.79807	42.28981	-93.47725	-225.40433	-65.19086	517.51416	173.04222	-65.40152	511.82059	15.82183	1220.53638	-33.27079	-62.70433	616.91119	-251.53540	95.59555	615.65717	-244.13554	-98.79111	453.34705	678.23834	53.40586	443.35324	683.06171	
15	0.140	-199.29283	43.36352	-106.42150	217.92918	42.39994	-93.37320	-225.43781	-65.17953	517.45239	173.17206	-65.31609	511.90610	15.84684	1220.54321	-33.28245	-62.66784	616.89417	-251.53482	95.58187	615.66187	-244.13731	-98.74742	453.35333	678.26459	53.44922	443.33862	683.07373	
16	0.150	-199.31795	43.28218	-106.36755	217.94670	42.41251	-93.36969	-225.41539	-65.12848	517.49408	173.09366	-65.37901	511.86957	15.84982	1220.53821	-33.25760	-62.70280	616.92334	-251.54707	95.58512	615.63940	-244.13124	-98.75588	453.37875	678.25800	53.46704	443.37543	683.05438	
17	0.160	-199.30304	43.28772	-106.37790	217.90750	42.35104	-93.42987	-225.40541	-65.16712	517.48462	173.07484	-65.37226	511.87396	15.82384	1220.53638	-33.25313	-62.76271	616.93085	-251.58748	95.56624	615.61310	-244.11272	-98.78154	453.33783	678.26984	53.41750	443.36179	683.04993	
18	0.170	-199.32109	43.30133	-106.38760	217.85400	42.30691	-93.42027	-225.40170	-65.15900	517.49469	172.99413	-65.40767	511.91257	15.77871	1220.52734	-33.29169	-62.80001	616.98523	-251.63943	95.59327	615.63953	-244.12360	-98.81001	453.34027	678.26141	53.39421	443.36069	683.02209	
19	0.180	-199.28061	43.35975	-106.40404	217.88852	42.34071	-93.36139	-225.40175	-65.20158	517.48517	173.00180	-65.38990	511.91788	15.80497	1220.52441	-33.28141	-62.75775	616.98621	-251.63686	95.52815	615.63312	-244.12956	-98.81288	453.34564	678.25574	53.42850	443.35049	683.05408	
20	0.190	-199.28641	43.35056	-106.39751	217.94334	42.38504	-93.36661	-225.42307	-65.15774	517.50275	173.04816	-65.33012	511.87494	15.78541	1220.52856	-33.29511	-62.79844	616.96106	-251.61241	95.54719	615.66663	-244.17850	-98.76414	453.32733	678.25134	53.43254	443.39142	683.06671	
21	0.200	-199.27237	43.31600	-106.35566	217.90651	42.37366	-93.45521	-225.40469	-65.17321	517.50726	172.91077	-65.44005	511.84412	15.83926	1220.53772	-33.28841	-62.76166	616.96674	-251.59595	95.57744	615.64685	-244.13051	-98.74974	453.35342	678.26410	53.46158	443.39569	683.07251	
22	0.210	-199.28568	43.35225	-106.43154	217.91441	42.37336	-93.40833	-225.42609	-65.14136	517.49146	173.00203	-65.34760	511.84283	15.83496	1220.54150	-33.26649	-62.76758	616.97784	-251.63351	95.59598	615.66266	-244.12103	-98.79559	453.35376	678.25623	53.38404	443.38052	683.03833	
23	0.220	-199.25027	43.37149	-106.39528	217.87700	42.34909	-93.39687	-225.42981	-65.18750	517.48840	173.02437	-65.41348	511.85449	15.81856	1220.53406	-33.25812	-62.71583	616.92206	-251.55641	95.56522	615.66241	-244.10576	-98.76214	453.33237	678.25256	53.39832	443.39050	683.05737	
24	0.230	-199.30319	43.28915	-106.33527	217.84576	42.32362	-93.36620	-225.36749	-65.20924	517.52692	173.15549	-65.30946	511.95557	15.80918	1220.52307	-33.25117	-62.72178	616.92786	-251.54463	95.60712	615.64465	-244.10431	-98.77431	453.32736	678.25745	53.37220	443.38730	683.03918	
25	0.240	-199.26860	43.35593	-106.39732	217.92274	42.36809	-93.37032	-225.39722	-65.19763	517.51385	173.13049	-65.38138	511.91168	15.80248	1220.50793	-33.26450	-62.70502	616.92657	-251.53957	95.55414	615.65851	-244.11922	-98.76496	453.35419	678.26569	53.42670	443.39227	683.06458	
26	0.250	-199.28496	43.29066	-106.35400	217.97369	42.41304	-93.32514	-225.37822	-65.17188	517.54047	173.02164	-65.45241	511.91101	15.83143	1220.51648	-33.27050	-62.68412	616.92542	-251.56308	95.53661	615.66315	-244.14957	-98.76764	453.33502	678.26324	53.41726	443.40762	683.07227	
27	0.260	-199.28787	43.38113	-106.43008	217.86247	42.31089	-93.42986	-225.43138	-65.18755	517.49506	173.04382	-65.41817	511.90140	15.80998	1220.54236	-33.27055	-62.72630	616.94250	-251.54976	95.57539	615.60675	-244.12105	-98.75665	453.34393	678.27466	53.41526	443.40979	683.07843	
28	0.270	-199.30470	43.28673	-106.35371	217.83035	42.30293	-93.46033	-225.42673	-65.16666	517.50104	173.07953	-65.41025	511.91931	15.87523	1220.51453	-33.24035	-62.70612	616.93323	-251.58427	95.51920	615.65002	-244.14899	-98.76605	453.33841	678.25958	53.41365	443.37823	683.06195	
29	0.280	-199.29674	43.28808	-106.35403	217.76253	42.24535	-93.46584	-225.41289	-65.14977	517.52789	173.14421	-65.39079	511.88080	15.84347	1220.52087	-33.24573	-62.73886	616.92584	-251.56480	95.60976	615.65643	-244.14668	-98.77744	453.35178	678.26636	53.40181	443.39514	683.07019	
30	0.290	-199.27451	43.35952	-106.40312	217.85101	42.33152	-93.41908	-225.41072	-65.17074	517.50885	173.01591	-65.41463	511.88837	15.86216	1220.53735	-33.25932	-62.70197	616.91638	-251.55640	95.57906	615.64453	-244.10680	-98.79627	453.33340	678.27380	53.40116	443.39331	683.06244	
31	0.300	-199.29718	43.28132	-106.33710	217.86047	42.35894	-93.39064	-225.42554	-65.20295	517.53693	173.00339	-65.39735	511.87131	15.83860	1220.53979	-33.26454	-62.69427	616.89661	-251.53569	95.57113	615.64819	-244.13687	-98.81238	453.33804	678.24677	53.42702	443.43320	683.08575	
32	0.310	-199.27811	43.36303	-106.40853	217.88782	42.33496	-93.37911	-225.40538	-65.18842	517.50500	172.99382	-65.33865	511.90854	15.84108	1220.54443	-33.25070	-62.69200	616.93109	-251.55812	95.56889	615.66846	-244.16136	-98.76009	453.34622	678.24902	53.42035	443.38486	683.07227	
